<?xml version="1.0" standalone="no"?>
<!DOCTYPE svg PUBLIC "-//W3C//DTD SVG 20010904//EN"
 "http://www.w3.org/TR/2001/REC-SVG-20010904/DTD/svg10.dtd">
<svg version="1.0" xmlns="http://www.w3.org/2000/svg"
 width="544.000000pt" height="544.000000pt" viewBox="0 0 544.000000 544.000000"
 preserveAspectRatio="xMidYMid meet">
<metadata>
Created by potrace 1.16, written by Peter Selinger 2001-2019
</metadata>
<g transform="translate(0.000000,544.000000) scale(0.100000,-0.100000)"
fill="#000000" stroke="none">
<path d="M2635 5242 c-8 -21 -6 -25 8 -14 6 5 33 8 59 6 26 -2 50 1 54 7 4 7
12 5 22 -5 17 -14 21 -16 42 -16 6 0 10 -5 10 -11 0 -7 11 -22 24 -34 14 -13
23 -25 20 -28 -2 -2 -4 -40 -4 -83 1 -125 0 -128 -9 -133 -5 -3 -11 -15 -14
-26 -2 -11 -5 22 -6 73 -1 60 3 91 9 87 6 -3 10 3 10 15 0 12 -4 18 -10 15 -6
-4 -10 8 -10 28 0 26 -6 37 -25 47 -14 7 -25 17 -25 22 0 4 -28 8 -63 8 -67 0
-98 -17 -112 -60 -4 -11 -11 -18 -16 -15 -14 9 -11 -79 3 -93 8 -8 12 -44 13
-96 0 -46 3 -82 8 -79 4 2 7 1 8 -4 2 -30 21 -203 30 -273 5 -47 12 -121 15
-165 3 -44 10 -84 15 -90 5 -5 9 -46 9 -92 0 -46 4 -83 10 -83 5 0 11 -30 13
-67 3 -66 3 -66 5 17 1 48 6 90 11 95 5 6 12 44 15 85 3 41 10 113 15 160 9
79 15 133 40 345 6 44 10 88 10 99 1 15 4 16 16 6 8 -6 20 -9 27 -5 7 4 5 0
-4 -8 -14 -11 -16 -22 -9 -63 5 -27 13 -60 19 -74 l11 -25 0 25 c0 14 -3 32
-9 40 -5 9 -5 19 2 27 5 7 8 33 6 58 -2 34 -1 42 8 31 8 -11 10 0 11 47 0 34
1 85 2 112 2 72 -3 108 -16 112 -7 3 -10 10 -7 17 3 7 -7 18 -20 26 -14 7 -23
17 -20 21 3 5 -2 6 -10 3 -9 -3 -18 0 -21 8 -8 20 -162 20 -170 0z"/>
<path d="M5030 5105 c0 -8 -3 -15 -7 -15 -5 0 -26 -18 -48 -40 -22 -21 -45
-39 -50 -40 -6 0 -17 -9 -25 -20 -8 -11 -18 -20 -22 -20 -4 0 -29 -21 -56 -47
-57 -57 -110 -103 -118 -103 -2 0 -20 -15 -38 -32 -18 -18 -54 -51 -80 -73
-27 -22 -65 -56 -86 -75 -20 -19 -59 -53 -86 -75 -26 -22 -63 -55 -81 -72 -18
-18 -35 -33 -38 -33 -6 0 -59 -47 -119 -105 -12 -11 -36 -31 -55 -45 -19 -13
-58 -46 -85 -73 -28 -27 -67 -61 -86 -75 -19 -15 -49 -40 -66 -57 -17 -16 -48
-43 -69 -60 -21 -16 -55 -46 -76 -65 -20 -19 -58 -53 -84 -75 -26 -22 -60 -51
-75 -65 -15 -14 -54 -47 -86 -75 -86 -73 -159 -139 -162 -147 -2 -5 -10 -8
-17 -8 -7 0 -15 -7 -19 -15 -6 -16 -36 -21 -36 -5 0 13 57 70 70 70 5 0 10 7
10 15 0 8 3 15 8 15 4 0 21 12 37 27 18 16 23 24 12 20 -10 -4 -23 -7 -28 -7
-6 0 -7 -4 -4 -10 3 -5 0 -10 -7 -10 -8 0 -20 -9 -28 -20 -8 -11 -19 -20 -24
-20 -11 0 -76 -66 -76 -78 0 -5 29 -24 65 -42 36 -18 65 -37 65 -41 0 -5 6 -9
13 -9 17 0 121 -101 143 -139 10 -17 22 -31 26 -31 4 0 8 -6 8 -12 0 -7 7 -21
15 -32 13 -17 15 -16 45 14 18 18 29 38 26 47 -3 8 -2 12 3 9 11 -7 43 28 34
37 -3 4 -2 7 3 7 13 0 41 26 83 79 22 26 40 40 49 36 11 -4 12 -2 4 8 -9 10
-6 17 8 30 23 19 25 33 8 43 -7 4 -8 3 -4 -5 5 -7 -3 -20 -18 -32 -15 -11 -24
-25 -21 -30 4 -5 -1 -6 -9 -3 -11 4 -16 0 -16 -10 0 -9 -4 -16 -9 -16 -5 0
-14 -13 -20 -30 -5 -16 -14 -30 -20 -30 -14 0 -100 -92 -101 -107 0 -7 -10
-17 -21 -24 -20 -10 -21 -9 -15 15 6 26 18 43 67 96 14 16 39 45 55 66 16 20
38 47 49 58 11 12 32 37 45 56 14 19 38 49 54 65 15 17 40 46 55 65 14 19 39
48 55 65 15 16 41 48 56 70 15 23 40 49 54 60 14 11 26 25 26 32 0 7 5 13 10
13 6 0 10 5 10 10 0 6 10 21 23 34 12 13 36 40 52 61 17 22 45 54 63 72 17 18
32 35 32 38 0 4 6 12 13 19 6 7 23 28 37 46 14 18 37 45 51 61 14 15 39 44 55
65 16 20 38 47 49 58 11 12 32 37 46 56 15 19 40 49 55 65 16 17 40 46 54 65
13 19 31 42 40 50 8 8 33 38 55 65 22 28 52 62 67 77 16 14 28 29 28 33 0 3 6
13 13 20 6 8 35 41 62 75 28 33 69 82 92 108 38 41 54 72 38 72 -3 0 -5 -7 -5
-15z"/>
<path d="M2534 5048 c-4 -6 -3 -8 3 -5 15 10 22 -15 17 -59 -3 -24 0 -40 8
-45 10 -7 10 -11 0 -21 -6 -6 -12 -26 -11 -42 0 -17 3 -25 6 -18 11 27 18 9
19 -50 1 -75 5 -101 19 -110 7 -4 10 -45 9 -100 -1 -58 3 -96 10 -100 6 -4 9
-33 8 -72 -2 -41 1 -67 8 -71 9 -6 9 -10 -1 -16 -11 -7 -12 -11 -1 -17 8 -6
14 -33 15 -70 2 -71 19 -84 24 -20 2 24 5 55 8 71 2 15 1 27 -4 27 -16 0 -33
113 -22 143 7 17 7 27 1 27 -6 0 -10 9 -10 20 0 11 -5 20 -11 20 -11 0 -7 91
7 124 5 14 4 17 -4 12 -8 -5 -12 2 -12 19 0 15 -4 23 -10 20 -6 -4 -9 26 -7
81 1 63 -2 89 -11 92 -16 5 -16 114 1 131 10 11 10 13 0 7 -9 -5 -13 0 -13 13
0 23 -33 30 -46 9z"/>
<path d="M2830 4740 c0 -11 -4 -20 -8 -20 -5 0 -4 -23 2 -51 8 -37 7 -55 -2
-69 -7 -11 -12 -29 -12 -40 0 -14 -4 -19 -12 -14 -7 5 -8 3 -3 -5 4 -7 9 -34
12 -59 2 -26 6 -52 8 -59 2 -6 -3 -14 -11 -17 -8 -3 -14 -12 -14 -20 0 -8 -4
-16 -9 -18 -5 -2 -5 -30 1 -67 5 -35 6 -66 1 -70 -20 -15 -29 -48 -22 -86 4
-24 1 -57 -7 -86 -9 -29 -13 -77 -11 -123 3 -68 2 -76 -15 -76 -19 0 -21 8
-18 75 0 22 -6 56 -14 76 -8 20 -12 39 -9 43 4 3 1 6 -5 6 -7 0 -13 -4 -13
-10 -1 -5 -2 -16 -3 -22 -1 -7 3 -16 9 -20 6 -5 4 -8 -5 -8 -13 0 -13 -2 -1
-9 10 -7 15 -30 15 -75 0 -36 4 -66 9 -66 4 0 3 -9 -3 -19 -15 -29 -12 -38 5
-15 12 16 14 16 15 3 0 -9 -7 -22 -15 -29 -8 -7 -15 -20 -14 -29 0 -10 2 -11
6 -3 8 21 21 13 21 -13 0 -36 11 -44 28 -21 17 24 18 40 2 30 -8 -5 -8 -3 -2
7 5 8 10 23 10 34 1 11 2 30 3 43 0 13 5 21 10 17 5 -3 9 18 9 47 -1 92 2 119
10 114 4 -2 8 41 8 96 1 59 5 103 12 107 6 4 10 34 8 74 -1 41 2 67 9 67 5 0
4 4 -3 9 -11 7 -11 9 2 14 13 5 16 19 13 73 -2 44 1 71 9 79 10 9 10 15 1 25
-8 8 -8 11 -1 7 7 -4 14 7 18 31 9 58 7 92 -6 92 -9 0 -8 3 2 10 11 7 12 12 3
21 -6 6 -9 18 -6 25 3 8 0 14 -6 14 -6 0 -11 -9 -11 -20z"/>
<path d="M2160 4680 c0 -5 -5 -10 -11 -10 -14 0 -39 -26 -39 -40 0 -6 -4 -8
-10 -5 -6 4 -10 -6 -10 -24 0 -16 -6 -31 -12 -34 -10 -3 -10 -11 0 -39 6 -19
12 -42 12 -51 0 -9 5 -17 10 -17 6 0 10 -11 10 -25 0 -14 5 -25 10 -25 6 0 10
-14 10 -31 0 -17 4 -28 10 -24 6 4 10 -5 10 -19 0 -14 3 -26 8 -26 11 0 32
-51 32 -78 0 -13 4 -21 9 -18 10 7 24 -22 16 -34 -3 -4 2 -10 10 -14 8 -3 15
-14 15 -25 0 -11 5 -23 10 -26 6 -3 10 -17 10 -31 0 -13 5 -24 10 -24 6 0 10
-11 10 -25 0 -14 5 -25 10 -25 6 0 10 -11 10 -25 0 -14 5 -25 10 -25 6 0 10
-11 10 -25 0 -14 5 -25 10 -25 6 0 10 -11 10 -25 0 -14 5 -25 10 -25 6 0 10
-9 10 -20 0 -11 5 -20 10 -20 6 0 10 -13 10 -30 0 -20 5 -30 15 -30 9 0 15 -9
15 -25 0 -14 5 -25 10 -25 6 0 10 -10 10 -22 1 -32 26 -62 45 -55 11 5 15 20
15 57 0 27 -4 50 -10 50 -6 0 -10 35 -10 84 0 46 -4 86 -9 88 -6 2 -11 42 -12
90 -1 48 -6 85 -10 82 -5 -3 -9 31 -9 75 0 43 -4 81 -9 83 -6 2 -11 40 -12 86
-1 45 -6 82 -10 82 -5 0 -9 36 -9 80 0 47 -4 80 -10 80 -5 0 -10 12 -10 26 0
27 -8 38 -57 72 -24 17 -45 22 -92 22 -34 0 -61 -4 -61 -10z"/>
<path d="M625 4018 c-30 -17 -45 -35 -45 -52 0 -27 -18 -27 -41 1 l-22 28 5
-27 c3 -15 2 -26 -1 -25 -3 1 -8 -2 -11 -8 -3 -5 4 -10 14 -10 11 0 21 -7 23
-15 3 -10 2 -11 -4 -4 -13 18 -42 13 -40 -8 1 -10 7 -18 15 -18 10 0 12 -8 7
-30 -5 -24 -3 -30 10 -30 11 0 15 -5 11 -15 -6 -18 10 -20 20 -3 4 6 -2 19
-15 29 -19 16 -20 19 -5 33 21 22 34 20 34 -5 0 -22 22 -49 40 -49 6 0 8 -4 5
-10 -3 -5 3 -10 15 -10 11 0 28 -4 38 -9 18 -9 63 -28 97 -41 11 -5 36 -15 55
-23 19 -9 48 -20 63 -26 15 -6 27 -14 27 -18 0 -5 12 -9 27 -10 15 0 29 -6 31
-12 2 -6 12 -11 23 -11 10 0 19 -4 19 -10 0 -5 11 -10 25 -10 27 0 28 -4 15
-35 -5 -11 -9 -15 -9 -8 -1 7 -8 10 -16 7 -11 -5 -14 -1 -9 12 3 11 2 15 -3 9
-13 -17 -37 -12 -48 10 -6 12 -18 19 -28 17 -9 -2 -14 -8 -11 -14 4 -6 2 -8
-4 -4 -6 3 -13 2 -17 -4 -3 -6 4 -10 18 -10 27 0 90 -24 83 -31 -3 -3 6 -6 20
-7 19 -1 27 4 31 18 6 21 47 28 58 10 3 -5 15 -10 26 -10 10 0 19 -4 19 -10 0
-5 11 -10 25 -10 14 0 25 -4 25 -8 0 -4 21 -14 46 -21 25 -8 48 -20 51 -27 2
-7 10 -11 18 -8 7 3 19 -2 28 -10 9 -9 25 -16 36 -16 11 0 23 -4 26 -10 3 -5
15 -10 26 -10 16 0 19 -5 15 -22 -3 -13 -3 -17 0 -10 7 14 54 16 54 2 0 -5 12
-10 27 -10 l27 0 -24 17 c-14 10 -34 25 -44 35 -11 10 -23 18 -28 18 -7 0 -43
28 -74 58 -7 6 -16 12 -21 12 -5 0 -15 9 -23 20 -8 11 -20 20 -27 20 -7 0 -13
5 -13 10 0 6 -6 10 -14 10 -8 0 -16 4 -18 8 -1 5 -23 22 -48 39 -25 17 -57 43
-72 57 -15 14 -31 26 -37 26 -5 0 -11 4 -13 8 -1 5 -25 23 -53 42 -27 19 -56
40 -65 46 -8 7 -35 29 -60 49 -25 20 -53 43 -63 51 -9 8 -22 14 -27 14 -6 0
-10 5 -10 10 0 6 -7 10 -15 10 -8 0 -15 5 -15 10 0 6 -5 10 -10 10 -6 0 -20 9
-32 20 -25 23 -109 27 -143 8z"/>
<path d="M4712 3990 c-12 -11 -26 -20 -32 -20 -5 0 -10 -4 -10 -8 0 -5 -12
-15 -27 -23 -16 -8 -35 -21 -43 -29 -8 -9 -33 -29 -55 -46 -22 -16 -49 -37
-59 -46 -11 -10 -25 -18 -31 -18 -6 0 -17 -9 -25 -20 -8 -11 -20 -20 -27 -20
-7 0 -13 -4 -13 -10 0 -5 -5 -10 -11 -10 -5 0 -24 -14 -42 -30 -18 -17 -40
-33 -49 -36 -10 -3 -18 -8 -18 -12 0 -4 -18 -18 -40 -32 -22 -14 -40 -28 -40
-32 0 -5 -5 -8 -11 -8 -6 0 -17 -7 -25 -15 -14 -13 -13 -15 5 -15 12 0 21 5
21 10 0 6 11 10 25 10 14 0 25 5 25 10 0 6 11 10 25 10 14 0 25 5 25 10 0 6
11 10 25 10 14 0 25 5 25 10 0 6 11 10 25 10 14 0 25 5 25 10 0 6 11 10 24 10
13 0 26 7 30 15 3 8 14 15 25 15 11 0 23 5 26 10 3 6 15 10 26 10 10 0 19 5
19 10 0 6 11 10 25 10 14 0 25 5 25 10 0 6 11 10 25 10 14 0 25 5 25 10 0 6
11 10 25 10 14 0 25 5 25 10 0 6 12 10 26 10 14 0 23 4 19 10 -3 6 5 10 19 10
14 0 28 5 31 10 3 6 15 10 26 10 35 0 68 49 68 100 0 65 -15 80 -81 80 -40 0
-60 -5 -76 -20z"/>
<path d="M2885 3470 c-3 -5 -16 -10 -28 -10 -41 0 -150 -64 -211 -125 -37 -36
-73 -84 -90 -120 -16 -33 -33 -68 -37 -77 -5 -10 -9 -28 -9 -40 0 -12 -6 -46
-12 -75 -12 -51 -14 -53 -47 -53 -19 0 -48 -4 -65 -10 -17 -5 -52 -15 -78 -22
-27 -7 -48 -16 -48 -20 0 -4 -5 -8 -11 -8 -18 0 -101 -61 -146 -108 -39 -42
-83 -118 -113 -199 -16 -42 -16 -244 0 -286 30 -81 74 -157 113 -199 45 -47
128 -108 146 -108 6 0 11 -4 11 -8 0 -4 21 -14 48 -21 26 -7 60 -17 76 -22 37
-12 154 -12 192 0 16 5 49 15 74 22 25 7 57 21 72 31 14 10 30 18 35 18 16 0
141 129 155 160 7 16 16 30 20 30 5 0 8 8 8 18 0 10 4 22 8 27 15 18 30 80 37
148 l7 67 63 0 c35 0 67 5 70 10 3 6 19 10 36 10 16 0 29 5 29 10 0 6 7 10 16
10 43 0 224 159 224 197 0 7 5 13 10 13 6 0 10 7 10 15 0 8 5 24 10 35 6 11
15 29 20 40 6 11 10 40 10 64 0 25 5 48 11 52 7 4 9 22 5 48 -4 22 -9 61 -12
86 -5 48 -7 54 -49 143 -45 96 -168 205 -270 237 -22 7 -48 16 -57 21 -24 12
-225 11 -233 -1z m155 -110 c0 -5 6 -10 14 -10 17 0 26 -21 26 -59 0 -35 -71
-111 -104 -111 -8 0 -18 -4 -21 -10 -3 -5 -36 -10 -73 -10 -51 1 -73 5 -89 19
-29 24 -31 79 -4 107 39 41 72 64 91 64 11 0 20 5 20 10 0 6 30 10 70 10 40 0
70 -4 70 -10z m-572 -536 c34 -24 30 -73 -10 -110 -51 -46 -85 -59 -158 -59
-72 0 -100 15 -100 55 0 85 192 167 268 114z"/>
<path d="M890 3358 c0 -4 -8 -8 -18 -8 -34 0 -71 -25 -89 -60 -10 -19 -22 -38
-26 -41 -10 -7 -6 -79 5 -79 4 0 8 -12 8 -27 0 -14 3 -24 6 -21 7 8 51 -35 46
-45 -2 -4 0 -7 5 -6 26 5 63 -2 58 -11 -4 -6 30 -10 94 -10 56 0 103 -4 106
-10 3 -5 42 -10 86 -10 46 0 79 -4 79 -10 0 -6 37 -10 90 -10 53 0 90 -4 90
-10 0 -6 39 -10 96 -10 52 0 93 -4 90 -8 -3 -5 27 -10 66 -11 86 -3 91 -3 100
-16 4 -5 8 5 8 23 0 28 -3 32 -26 32 -14 0 -23 4 -19 10 3 6 -4 10 -18 10 -14
0 -30 7 -37 15 -7 8 -16 13 -20 10 -4 -2 -16 2 -26 10 -10 8 -27 15 -36 15
-10 0 -18 4 -18 8 0 4 -10 9 -22 9 -13 1 -24 7 -26 13 -2 5 -15 10 -28 10 -13
0 -24 5 -24 10 0 6 -11 10 -25 10 -14 0 -25 5 -25 10 0 6 -11 10 -24 10 -14 0
-28 5 -31 10 -3 6 -15 10 -26 10 -10 0 -19 5 -19 10 0 6 -8 10 -19 10 -10 0
-24 7 -31 15 -7 9 -15 13 -18 10 -3 -3 -16 2 -29 10 -13 9 -28 13 -33 10 -6
-4 -13 1 -16 9 -3 9 -17 16 -31 16 -13 0 -21 4 -18 10 4 6 -6 10 -24 10 -16 0
-33 5 -36 10 -3 6 -15 10 -26 10 -10 0 -19 5 -19 10 0 6 -11 10 -25 10 -14 0
-25 5 -25 10 0 6 -13 10 -30 10 -16 0 -30 4 -30 9 0 6 -9 9 -20 8 -11 -1 -20
-5 -20 -9z"/>
<path d="M3680 2483 c0 -24 27 -43 59 -43 17 0 31 -4 31 -10 0 -5 11 -10 25
-10 16 0 25 -6 25 -16 0 -10 6 -13 19 -9 10 3 24 -1 31 -10 7 -8 21 -15 32
-15 10 0 16 -4 13 -10 -4 -6 7 -10 24 -10 17 0 31 -4 31 -10 0 -5 12 -10 26
-10 14 0 23 -4 19 -10 -4 -6 7 -10 24 -10 17 0 31 -4 31 -10 0 -5 11 -10 25
-10 14 0 25 -4 25 -10 0 -5 11 -10 25 -10 14 0 25 -4 25 -10 0 -5 11 -10 24
-10 13 0 26 -7 30 -15 3 -8 14 -15 24 -15 10 0 22 -3 26 -7 3 -4 14 -8 24 -9
9 -2 18 -8 20 -13 2 -6 15 -11 28 -11 14 0 22 -4 19 -10 -4 -6 7 -10 25 -10
17 0 29 -4 26 -8 -2 -4 7 -9 22 -10 15 -1 29 -7 30 -12 5 -13 132 -13 132 0 0
6 9 10 21 10 11 0 17 5 14 10 -3 6 1 10 9 10 9 0 16 7 16 16 0 8 5 12 10 9 6
-4 10 11 10 37 0 31 3 39 10 28 8 -13 10 -12 10 3 0 9 -4 17 -10 17 -5 0 -10
19 -10 42 0 23 -3 39 -6 35 -3 -3 -17 7 -31 24 -14 16 -33 29 -44 29 -10 0
-19 5 -19 10 0 6 -34 10 -81 10 -51 0 -78 4 -74 10 4 6 -34 10 -107 10 -77 0
-108 3 -98 10 10 7 -23 10 -102 10 -72 0 -118 4 -118 10 0 6 -42 10 -105 10
-67 0 -105 4 -105 11 0 6 -22 9 -55 8 -39 -2 -55 -6 -55 -16z"/>
<path d="M1832 2160 c-23 -21 -42 -43 -42 -47 0 -5 -9 -15 -20 -23 -11 -8 -20
-18 -20 -22 0 -7 -17 -27 -92 -110 -17 -19 -32 -27 -40 -22 -10 6 -11 5 -1 -7
10 -12 9 -18 -5 -31 -22 -19 -52 -57 -52 -64 0 -3 -10 -15 -22 -28 -54 -57
-88 -97 -88 -107 0 -6 -4 -7 -10 -4 -5 3 -10 1 -10 -4 0 -10 -30 -48 -72 -92
-9 -10 -14 -20 -10 -23 3 -3 -2 -6 -12 -6 -9 0 -15 -4 -12 -8 2 -4 -15 -29
-40 -55 -24 -26 -44 -49 -44 -52 0 -4 -46 -57 -87 -101 -13 -13 -23 -27 -23
-31 0 -4 -16 -26 -36 -48 -19 -22 -46 -52 -60 -68 -13 -15 -24 -29 -24 -31 0
-3 -12 -18 -28 -34 -46 -50 -82 -92 -82 -98 0 -3 -10 -15 -22 -28 -13 -13 -34
-37 -48 -55 -49 -60 -62 -76 -91 -108 -16 -18 -29 -35 -29 -38 0 -3 -15 -21
-32 -39 -46 -46 -78 -85 -78 -94 0 -4 -18 -25 -40 -47 -21 -22 -39 -44 -40
-48 0 -4 -15 -22 -32 -40 -18 -18 -46 -51 -63 -72 -16 -21 -43 -52 -58 -69
-16 -17 -36 -43 -45 -58 -9 -16 -22 -28 -30 -28 -7 0 -11 -4 -8 -8 2 -4 -15
-29 -40 -55 -24 -26 -44 -50 -44 -55 0 -4 -9 -14 -20 -22 -11 -8 -20 -18 -20
-23 0 -5 -13 -21 -28 -35 -47 -45 -84 -100 -72 -107 15 -9 50 4 75 29 12 11
40 35 62 53 22 18 58 50 81 73 23 22 46 40 51 40 5 0 12 7 15 16 4 9 9 14 12
12 3 -3 28 18 57 46 29 28 68 63 87 76 19 14 46 37 58 52 13 16 28 28 34 28
12 0 38 25 38 37 0 5 14 17 31 27 16 10 45 33 64 52 19 19 37 34 39 34 5 0 42
32 136 120 21 19 59 53 85 75 26 22 64 56 85 75 55 51 113 95 122 93 4 -2 7 1
5 5 -2 8 68 82 78 82 3 0 18 11 32 24 15 14 31 22 36 19 6 -3 7 -1 3 5 -4 7
-1 12 9 12 9 0 14 4 10 9 -3 6 3 15 14 21 12 6 31 20 44 33 51 49 97 87 105
87 5 0 15 11 22 25 7 13 16 22 20 20 3 -2 13 5 20 16 8 10 18 19 22 19 5 0 28
20 52 45 25 25 48 45 51 45 4 0 19 12 33 28 15 15 43 39 62 53 19 15 54 45 78
68 23 22 44 41 47 41 3 0 13 8 23 18 89 84 144 132 152 132 5 0 10 5 10 10 0
6 5 10 11 10 12 0 53 43 70 72 11 20 -6 40 -56 64 -49 23 -163 139 -214 217
-24 37 -47 67 -51 67 -4 0 -25 -18 -48 -40z"/>
<path d="M3874 2065 c8 -8 19 -15 25 -15 6 0 11 -4 11 -8 0 -4 13 -16 30 -25
16 -10 35 -23 42 -30 7 -7 29 -23 48 -37 19 -13 46 -34 59 -47 13 -13 29 -23
35 -23 6 0 18 -9 26 -20 8 -11 20 -20 27 -20 7 0 13 -4 13 -10 0 -5 5 -10 11
-10 6 0 16 -6 23 -12 7 -7 25 -22 41 -33 16 -11 39 -30 52 -42 13 -13 28 -23
33 -23 6 0 10 -4 10 -10 0 -5 7 -10 15 -10 8 0 15 -4 15 -10 0 -5 7 -10 15
-10 8 0 15 -4 15 -8 0 -4 13 -16 30 -25 16 -10 35 -23 42 -30 7 -7 31 -26 53
-42 22 -16 47 -37 55 -45 8 -8 27 -21 43 -29 15 -8 27 -18 27 -23 0 -4 9 -8
20 -8 11 0 20 -4 20 -10 0 -14 71 -13 101 2 44 21 62 55 61 119 0 49 -4 62
-26 84 -14 14 -32 25 -40 25 -8 0 -18 5 -21 10 -3 6 -15 10 -26 10 -10 0 -19
5 -19 10 0 6 -11 10 -25 10 -14 0 -25 5 -25 10 0 6 -7 10 -15 10 -8 0 -23 4
-33 9 -69 36 -126 61 -138 61 -8 0 -14 5 -14 10 0 6 -11 10 -24 10 -14 0 -28
5 -31 10 -3 6 -15 10 -26 10 -10 0 -19 5 -19 10 0 6 -11 10 -25 10 -14 0 -25
5 -25 10 0 6 -7 10 -15 10 -8 0 -24 5 -35 10 -11 6 -29 15 -40 20 -11 6 -27
10 -35 10 -9 0 -18 6 -21 14 -3 8 -11 13 -19 10 -7 -3 -19 2 -28 10 -9 9 -25
16 -36 16 -12 0 -21 5 -21 10 0 6 -12 10 -26 10 -17 0 -24 4 -21 13 4 10 -3
12 -24 9 -17 -3 -29 0 -29 7 0 6 -11 11 -25 11 -14 0 -25 5 -25 10 0 6 -9 10
-19 10 -11 0 -23 5 -26 10 -3 6 -13 10 -21 10 -14 0 -14 -2 0 -15z"/>
<path d="M1340 1945 c-14 -8 -33 -14 -42 -15 -10 0 -18 -4 -18 -10 0 -5 -7
-10 -15 -10 -8 0 -25 -5 -38 -12 -48 -24 -57 -28 -77 -28 -11 0 -20 -4 -20
-10 0 -5 -9 -10 -20 -10 -11 0 -20 -4 -20 -10 0 -5 -11 -10 -25 -10 -14 0 -25
-4 -25 -10 0 -5 -9 -10 -21 -10 -11 0 -27 -7 -35 -15 -15 -15 -48 -10 -38 6 3
5 0 9 -7 9 -6 0 -9 -8 -6 -19 3 -14 -5 -22 -37 -35 -22 -10 -49 -21 -58 -27
-10 -5 -25 -9 -33 -9 -8 0 -15 -4 -15 -10 0 -5 -11 -10 -25 -10 -14 0 -25 -4
-25 -10 0 -18 -45 -10 -58 10 -7 11 -17 20 -22 20 -6 0 -19 -9 -30 -20 -11
-11 -20 -16 -20 -12 0 5 -7 9 -16 9 -14 0 -14 -2 2 -14 25 -18 41 -16 47 7 3
11 10 20 17 20 6 0 9 -4 6 -9 -3 -5 1 -11 9 -15 24 -9 17 -26 -10 -26 -14 0
-25 -4 -25 -10 0 -5 -7 -10 -16 -10 -22 0 -43 -29 -44 -57 0 -29 -14 -29 -35
-1 -14 21 -14 24 6 39 18 14 19 17 5 28 -14 12 -16 10 -16 -8 0 -11 -4 -21 -9
-21 -5 0 -9 -26 -8 -59 2 -42 5 -57 15 -54 6 3 12 11 12 19 0 8 7 14 15 14 9
0 15 -9 15 -24 0 -14 10 -30 25 -40 27 -17 115 -22 115 -6 0 6 6 10 13 10 6 0
28 14 47 30 19 16 40 30 46 30 7 0 14 6 17 14 3 8 27 29 54 47 26 18 57 41 67
51 11 10 23 18 28 18 7 0 35 21 63 48 8 6 21 12 29 12 9 0 16 6 16 13 0 6 17
23 38 37 20 14 42 29 48 35 34 29 55 45 62 45 4 0 23 13 42 29 19 16 46 39 60
50 29 24 25 26 -10 6z"/>
<path d="M2723 1753 c5 -10 -30 -43 -37 -35 -3 3 -6 1 -6 -5 0 -6 7 -14 16
-17 12 -4 14 -13 9 -29 -3 -12 -7 -28 -7 -34 -1 -7 -4 -13 -7 -13 -4 0 -6 -24
-6 -52 0 -33 -5 -60 -15 -73 -14 -19 -14 -19 4 -5 17 13 18 13 14 -5 -2 -11
-9 -19 -14 -18 -6 1 -10 -9 -10 -23 0 -13 5 -24 11 -24 17 0 37 97 33 153 -4
47 -4 47 26 47 17 0 26 -4 20 -8 -15 -10 -16 -144 0 -189 11 -34 12 -110 1
-121 -2 -3 3 -19 12 -36 20 -38 26 -98 13 -131 -6 -16 -6 -25 0 -25 6 0 10 -9
10 -20 0 -12 5 -17 13 -14 10 3 11 -8 6 -53 -3 -32 -9 -66 -14 -76 -5 -13 -4
-16 8 -12 11 5 13 0 10 -18 -3 -14 0 -28 6 -31 6 -4 11 -27 11 -51 0 -25 5
-45 13 -48 7 -3 5 -6 -6 -6 -14 -1 -16 -7 -11 -28 4 -16 7 -29 8 -30 1 -1 12
7 25 18 13 10 19 19 13 19 -5 0 -13 37 -17 83 -4 45 -11 88 -17 94 -6 7 -10
43 -11 80 0 38 -4 70 -8 73 -4 3 -9 49 -11 102 -1 53 -6 94 -10 92 -9 -6 -10
1 -9 79 0 42 -4 59 -14 63 -8 4 -12 10 -9 15 3 5 9 7 13 5 4 -3 8 1 8 9 0 8
-5 13 -11 12 -6 -1 -10 31 -10 90 0 51 -3 87 -8 80 -9 -13 -11 4 -9 63 1 26
-1 31 -8 20 -8 -11 -13 -12 -22 -3 -8 8 -6 13 10 18 12 3 19 11 16 16 -7 11
-28 12 -22 2z"/>
<path d="M2998 1733 c-15 -4 -18 -16 -18 -64 0 -33 4 -59 10 -59 6 0 10 -43
10 -107 0 -74 3 -103 10 -93 7 10 10 -14 10 -77 0 -55 4 -93 10 -93 6 0 10
-39 10 -96 0 -61 4 -93 10 -89 9 6 16 -90 10 -154 -1 -14 2 -21 9 -17 10 6 15
-6 12 -26 0 -5 5 -8 12 -8 8 0 20 -11 27 -25 7 -14 19 -25 27 -25 7 0 13 -4
13 -10 0 -6 29 -10 66 -10 41 0 63 4 59 10 -3 6 -1 10 4 10 14 0 51 37 51 50
0 6 5 10 10 10 6 0 10 30 10 69 0 39 -4 73 -10 76 -5 3 -10 15 -10 26 0 10 -4
19 -10 19 -5 0 -10 11 -10 25 0 14 -4 25 -10 25 -5 0 -10 9 -10 20 0 11 -4 20
-10 20 -5 0 -10 9 -10 21 0 11 -7 27 -15 36 -8 8 -13 19 -10 24 4 5 1 9 -4 9
-6 0 -11 11 -11 24 0 13 -7 26 -15 30 -8 3 -12 12 -9 21 4 8 -1 17 -10 21 -9
3 -16 15 -16 25 0 10 -4 19 -10 19 -5 0 -10 11 -10 25 0 14 -4 25 -10 25 -5 0
-10 9 -10 20 0 11 -4 20 -10 20 -5 0 -10 11 -10 25 0 14 -4 25 -10 25 -5 0
-10 9 -10 20 0 11 -4 20 -10 20 -5 0 -10 14 -10 31 0 17 -4 28 -10 24 -6 -4
-10 5 -10 19 0 16 -6 26 -15 26 -9 0 -12 6 -8 16 3 8 -4 25 -16 38 -12 12 -18
26 -14 29 3 4 4 6 2 6 -2 -1 -12 -3 -21 -6z"/>
<path d="M2722 1403 c-1 -34 -6 -65 -12 -68 -5 -3 -10 -44 -10 -90 0 -46 -4
-87 -10 -90 -5 -3 -10 -42 -10 -85 0 -68 -10 -103 -25 -88 -11 11 -9 116 2
138 15 29 14 120 -1 120 -6 0 -5 4 2 9 8 4 14 11 13 14 0 4 5 21 12 39 6 18
10 38 8 43 -2 6 -3 22 -2 38 1 17 -4 27 -13 27 -10 0 -13 -11 -11 -41 3 -29 0
-39 -9 -36 -9 4 -13 -19 -15 -86 -1 -57 -7 -94 -14 -99 -9 -6 -9 -8 -1 -8 7 0
14 -7 18 -15 3 -8 0 -14 -7 -12 -8 1 -12 -19 -12 -70 0 -39 -4 -75 -9 -80 -5
-5 -6 -3 -2 5 4 6 2 12 -4 12 -7 0 -9 -29 -7 -85 2 -66 0 -86 -11 -90 -9 -3
-13 -15 -10 -36 3 -16 1 -32 -4 -35 -19 -12 -8 -73 18 -100 19 -18 25 -21 19
-7 -15 37 -18 104 -5 128 7 13 10 31 6 40 -4 12 -2 16 8 12 11 -5 12 1 6 26
-13 50 1 137 22 137 14 0 4 -137 -31 -415 -5 -44 -10 -89 -10 -99 -1 -19 -1
-19 -14 -1 -17 23 -23 135 -7 135 15 0 8 42 -8 48 -9 3 -11 -3 -6 -22 4 -19 2
-26 -8 -26 -11 0 -14 -16 -14 -65 0 -36 4 -65 9 -65 4 0 5 -4 2 -10 -3 -6 -3
-16 1 -22 6 -9 10 -5 15 12 5 18 7 10 8 -28 1 -29 6 -59 12 -66 63 -75 64 -76
129 -76 38 0 59 4 55 10 -3 6 -1 10 5 10 18 0 49 43 50 68 0 13 4 20 10 17 6
-3 10 3 10 15 0 12 -4 18 -10 15 -6 -4 -10 29 -10 92 0 67 -3 93 -10 83 -9
-13 -10 -13 -10 0 0 8 -5 58 -11 110 -11 105 -17 152 -60 510 -5 47 -13 126
-18 175 -7 85 -8 87 -9 28z"/>
</g>
</svg>
