<?xml version="1.0" standalone="no"?>
<!DOCTYPE svg PUBLIC "-//W3C//DTD SVG 20010904//EN"
 "http://www.w3.org/TR/2001/REC-SVG-20010904/DTD/svg10.dtd">
<svg version="1.0" xmlns="http://www.w3.org/2000/svg"
 width="222.000000pt" height="162.000000pt" viewBox="0 0 222.000000 162.000000"
 preserveAspectRatio="xMidYMid meet">

<g transform="translate(0.000000,162.000000) scale(0.100000,-0.100000)"
fill="#000000" stroke="none">
<path d="M1218 1368 l-48 -21 0 -67 c0 -51 -4 -69 -15 -74 -23 -8 -19 -46 5
-46 25 0 32 27 28 105 -3 59 -2 60 29 78 18 9 35 17 38 17 3 0 5 -37 5 -83 0
-71 -3 -84 -20 -95 -21 -13 -17 -42 5 -42 29 0 34 26 27 137 l-7 112 -47 -21z"/>
<path d="M1040 1275 c0 -41 -3 -53 -13 -49 -17 6 -41 -21 -32 -36 10 -16 42
-12 49 6 3 9 6 33 6 55 0 30 3 37 15 33 18 -7 19 5 1 29 -21 27 -26 21 -26
-38z"/>
<path d="M1380 1256 c0 -46 -3 -56 -20 -61 -29 -9 -27 -47 3 -43 19 3 23 10
27 63 4 49 7 55 13 35 5 -14 11 -20 13 -13 5 11 -22 73 -31 73 -3 0 -5 -24 -5
-54z"/>
<path d="M630 1241 c0 -5 -23 -12 -51 -16 -43 -6 -53 -12 -74 -44 -26 -38 -51
-143 -39 -162 4 -8 -5 -9 -32 -5 -61 10 -148 -30 -206 -94 -61 -68 -98 -179
-99 -295 -1 -79 12 -135 30 -135 5 0 14 -14 20 -30 5 -17 17 -33 26 -36 28
-11 16 -21 -30 -27 -45 -5 -63 -12 -54 -22 7 -6 157 -17 261 -19 47 0 90 -4
94 -9 24 -23 75 15 108 81 24 46 46 42 46 -8 0 -31 -4 -40 -17 -40 -15 0 -16
2 -3 10 12 8 10 10 -9 10 -13 0 -21 -3 -18 -7 4 -3 1 -13 -6 -21 -10 -13 -8
-14 17 -8 18 4 32 3 36 -4 8 -13 248 -18 450 -8 89 4 136 3 123 -2 -46 -19
-20 -23 103 -17 109 4 133 2 182 -15 87 -30 292 -38 292 -10 0 4 -32 5 -72 4
-63 -3 -152 7 -212 25 -14 4 -15 7 -6 13 8 5 -1 8 -23 7 -27 -1 -50 9 -93 40
-68 47 -75 60 -38 65 19 2 32 13 43 36 14 29 20 32 49 29 17 -1 32 1 32 5 0 4
7 8 15 8 9 0 26 7 40 16 19 12 28 13 45 4 25 -13 74 6 121 48 36 31 54 20 67
-41 5 -29 16 -72 22 -97 6 -25 9 -66 6 -92 -3 -28 -1 -48 4 -48 6 0 10 7 10
15 0 17 60 104 73 105 4 0 7 -10 7 -23 0 -28 17 -47 42 -47 11 0 18 -7 18 -20
0 -16 -7 -20 -37 -22 -21 0 -50 0 -65 1 -29 2 -34 -5 -20 -26 5 -8 26 -10 65
-6 40 4 54 9 45 15 -8 6 -1 7 20 3 31 -6 38 -3 77 40 24 26 53 66 64 89 27 55
38 131 21 151 -20 24 -38 18 -69 -25 -29 -40 -30 -40 -48 -22 -10 11 -27 24
-38 30 -18 10 -15 11 18 12 56 0 124 38 137 77 21 61 -31 111 -103 98 -23 -4
-58 -9 -77 -11 -67 -8 -100 -41 -100 -100 0 -15 -4 -23 -11 -19 -5 4 -19 -1
-29 -10 -12 -11 -20 -13 -25 -6 -11 19 -61 12 -81 -10 -25 -28 -60 -42 -114
-44 -25 -1 -56 -6 -70 -10 -23 -6 -22 -5 5 13 36 23 66 55 69 74 1 7 10 26 20
41 15 22 17 32 8 52 -7 15 -8 26 -2 30 17 11 11 44 -10 55 -11 6 -25 8 -30 5
-9 -6 -50 29 -50 43 0 4 15 14 33 22 45 21 48 59 7 93 -41 35 -96 45 -132 24
-23 -13 -37 -14 -87 -5 -52 10 -63 9 -97 -9 -22 -11 -49 -34 -61 -52 -31 -45
-47 -133 -36 -191 9 -43 8 -46 -11 -46 -18 1 -21 -5 -21 -37 l0 -37 -187 0
c-177 0 -188 -1 -188 -19 0 -13 -10 -20 -31 -25 -19 -4 -33 -13 -36 -26 -8
-29 -33 -25 -33 5 0 14 6 25 14 25 8 0 16 16 19 43 7 46 -12 72 -44 62 -17 -6
-89 23 -89 36 0 11 133 4 155 -8 25 -14 55 0 55 27 0 22 28 53 41 45 5 -4 9
-15 9 -25 0 -11 11 -27 25 -36 37 -24 77 -4 107 52 22 43 22 45 6 74 -16 28
-16 33 3 87 15 41 19 75 16 117 -3 56 -6 62 -50 102 -53 48 -124 77 -151 62
-11 -6 -28 -6 -48 1 -38 13 -58 14 -58 2z m40 -5 c0 -11 -19 -15 -25 -6 -3 5
1 10 9 10 9 0 16 -2 16 -4z m115 -16 c-3 -6 4 -10 18 -10 15 0 42 -17 71 -44
44 -42 46 -47 46 -99 0 -30 -9 -80 -20 -112 -19 -54 -19 -60 -4 -76 46 -51
-46 -165 -94 -117 -22 22 -14 41 13 34 38 -10 30 11 -10 25 -19 7 -37 19 -39
26 -6 16 -1 16 25 3 26 -14 24 -6 -6 24 -25 25 -35 53 -14 40 7 -4 10 -2 8 5
-10 30 -24 6 -22 -39 1 -41 -3 -55 -23 -75 -13 -13 -21 -30 -18 -38 8 -22 -17
-33 -31 -14 -9 13 -21 15 -45 10 -30 -5 -33 -4 -26 13 15 37 19 84 8 84 -6 0
-9 6 -6 14 3 8 -3 19 -14 25 -15 8 -23 6 -37 -9 -28 -31 -61 -26 -69 11 -5 27
-9 30 -31 25 -20 -5 -25 -3 -25 13 0 11 -3 26 -6 34 -4 11 2 16 21 19 25 3 27
7 31 62 5 72 39 150 62 141 8 -3 18 -1 22 5 4 6 38 11 77 11 38 0 76 5 84 10
19 12 62 11 54 -1z m655 -214 c0 -2 -9 -6 -20 -9 -11 -3 -18 -1 -14 4 5 9 34
13 34 5z m-152 -15 c-54 -8 -93 -38 -116 -91 -8 -19 -17 -30 -19 -23 -2 6 5
30 17 53 24 48 65 70 125 68 l40 -1 -47 -6z m255 -24 c17 -22 18 -29 7 -42 -7
-8 -22 -15 -34 -15 -20 1 -20 2 -3 14 9 7 17 23 17 34 0 12 -8 26 -17 32 -11
7 -12 10 -4 7 8 -2 24 -15 34 -30z m-63 -71 c0 -36 36 -74 72 -78 38 -4 48
-25 18 -36 -20 -7 -20 -9 -6 -21 25 -21 19 -57 -11 -80 -21 -16 -25 -23 -15
-29 10 -7 4 -17 -25 -40 -21 -18 -49 -41 -62 -52 -29 -24 -47 -25 -97 -4 -36
15 -37 17 -17 25 12 4 29 19 39 33 15 24 15 28 0 51 -9 13 -25 29 -37 35 -20
11 -20 12 -2 26 17 13 16 14 -8 9 -16 -4 -30 -1 -37 7 -17 21 8 63 38 64 67 3
71 5 81 32 7 17 7 33 1 42 -7 12 -2 18 22 26 45 17 46 16 46 -10z m-997 -8 c7
-27 4 -31 -21 -26 -16 2 -18 7 -11 26 11 28 25 28 32 0z m117 -7 c0 -6 -5 -13
-12 -17 -7 -5 -4 -10 10 -15 25 -10 29 -29 6 -29 -11 0 -14 -6 -9 -20 5 -14 2
-20 -9 -20 -9 0 -16 -6 -16 -14 0 -9 -8 -12 -24 -9 -13 3 -32 0 -43 -5 -13 -7
-24 -6 -38 4 -10 8 -29 14 -42 14 -27 0 -27 -2 -8 44 9 20 20 34 25 31 17 -11
130 17 130 31 0 8 7 14 15 14 8 0 15 -4 15 -9z m1459 -127 c18 -13 20 -18 10
-25 -11 -7 -10 -9 5 -9 15 0 16 -3 6 -15 -9 -10 -9 -15 -1 -15 6 0 11 -7 11
-15 0 -20 -74 -54 -117 -55 -32 0 -32 1 -31 45 0 34 5 45 17 46 13 1 13 2 -1
6 -21 5 -24 23 -4 23 7 0 19 7 26 15 16 20 50 19 79 -1z m-1605 -20 c20 -20
21 -35 1 -28 -8 4 -15 11 -15 16 0 6 -9 8 -20 5 -11 -3 -20 -1 -20 4 0 18 -24
8 -69 -28 -31 -25 -40 -29 -26 -13 36 45 60 60 97 60 20 0 44 -7 52 -16z
m1456 6 c-13 -9 -13 -10 0 -10 11 -1 10 -4 -4 -15 -15 -11 -16 -15 -5 -15 11
0 15 -11 15 -40 0 -22 -1 -40 -3 -40 -2 0 -19 7 -38 14 -28 12 -35 21 -35 42
0 33 36 74 64 74 17 0 18 -2 6 -10z m-1364 -34 c27 -15 51 -22 68 -19 20 4 26
1 26 -11 0 -10 -4 -14 -10 -11 -5 3 -10 1 -10 -4 0 -8 -6 -7 -19 0 -18 12 -32
9 -63 -13 -13 -9 -20 -9 -32 1 -16 13 -23 81 -8 81 4 0 26 -11 48 -24z m580
-41 c0 -21 -3 -30 -8 -22 -10 16 -10 57 0 57 4 0 8 -16 8 -35z m-524 -30 c14
-31 -4 -150 -31 -203 -24 -47 -66 -86 -81 -77 -9 6 -9 10 1 16 11 7 11 9 1 9
-7 0 -10 5 -7 10 3 6 2 10 -3 10 -14 0 31 89 46 90 7 0 10 5 6 11 -3 6 -1 15
7 19 10 7 10 14 1 35 -17 36 -15 48 9 79 26 32 36 33 51 1z m-83 -36 c-9 -19
-31 -23 -30 -6 1 4 1 16 1 27 0 18 3 19 20 10 17 -9 18 -14 9 -31z m121 31 c0
-5 -5 -10 -11 -10 -5 0 -7 5 -4 10 3 6 8 10 11 10 2 0 4 -4 4 -10z m616 -40
c42 -14 54 -29 43 -57 -7 -20 -15 -23 -64 -23 -56 0 -117 18 -130 39 -4 7 -1
19 6 28 27 32 74 36 145 13z m835 -2 c3 -41 -5 -88 -23 -125 -28 -60 -38 -62
-39 -6 0 26 -1 60 -1 76 -1 29 26 67 49 67 7 0 13 -6 14 -12z m-1606 -18 c3
-5 1 -10 -4 -10 -6 0 -11 5 -11 10 0 6 2 10 4 10 3 0 8 -4 11 -10z m-25 -69
c-12 -30 -33 -40 -45 -22 -3 5 3 25 12 45 15 29 20 33 32 21 12 -11 12 -19 1
-44z m80 38 c0 -5 -4 -9 -10 -9 -5 0 -10 7 -10 16 0 8 5 12 10 9 6 -3 10 -10
10 -16z m811 1 c10 -6 19 -15 19 -21 0 -6 -5 -7 -11 -4 -6 4 -9 0 -7 -11 2
-14 -3 -18 -17 -17 -11 1 -23 -4 -27 -10 -15 -25 -17 2 -3 36 17 41 18 41 46
27z m-861 -80 c-11 -20 -40 -28 -40 -11 0 6 10 27 23 48 22 38 22 38 25 11 2
-15 -2 -36 -8 -48z m660 -9 c0 -30 5 -51 13 -55 6 -2 3 -4 -8 -3 -11 1 -48 -2
-83 -6 -34 -4 -69 -4 -77 1 -9 4 -46 5 -83 0 -37 -5 -100 -10 -140 -13 -40 -2
-82 -7 -94 -11 -15 -5 -18 -3 -12 7 4 7 7 30 5 51 l-3 38 145 0 c114 0 147 3
157 14 6 8 33 16 58 18 26 2 64 4 85 6 l37 2 0 -49z m135 7 c10 -18 29 -42 43
-54 l24 -21 -48 -7 c-26 -3 -77 -5 -113 -5 l-66 1 70 13 c62 11 65 12 28 14
-39 1 -42 3 -39 24 3 12 5 32 5 45 1 19 6 22 39 22 32 0 41 -5 57 -32z m-1075
-3 c14 -19 14 -19 -2 -6 -10 7 -18 18 -18 24 0 6 1 8 3 6 1 -2 9 -13 17 -24z
m224 -19 c14 -19 23 -37 18 -40 -11 -7 -164 -27 -169 -22 -3 3 17 7 44 11 26
4 59 11 73 16 21 8 19 8 -12 5 -21 -3 -38 -2 -38 1 0 8 44 62 51 62 4 1 18
-14 33 -33z m1547 -72 c6 -8 4 -14 -7 -18 -34 -13 -43 12 -22 61 l12 28 4 -30
c2 -16 8 -35 13 -41z m-1061 2 c0 -2 -11 -6 -25 -8 -13 -3 -22 -1 -19 3 5 9
44 13 44 5z m469 -5 c20 -13 -39 -23 -104 -19 l-50 3 45 12 c57 14 91 15 109
4z m-582 -7 c-3 -3 -12 -4 -19 -1 -8 3 -5 6 6 6 11 1 17 -2 13 -5z"/>
<path d="M645 1026 c-8 -13 -13 -31 -9 -40 9 -23 21 -20 20 5 -1 12 7 26 17
33 25 16 53 -5 50 -38 -1 -15 2 -24 8 -21 17 11 9 54 -13 69 -32 22 -55 20
-73 -8z"/>
<path d="M533 1000 c-33 -13 -28 -20 15 -20 41 0 71 14 58 27 -5 4 -11 2 -13
-4 -3 -7 -11 -13 -19 -13 -9 0 -12 5 -9 10 7 12 -2 12 -32 0z"/>
<path d="M685 820 c3 -5 11 -10 16 -10 6 0 7 5 4 10 -3 6 -11 10 -16 10 -6 0
-7 -4 -4 -10z"/>
<path d="M1497 795 c-4 -8 -2 -17 2 -20 5 -2 11 4 14 15 6 23 -8 27 -16 5z"/>
<path d="M1445 780 c-3 -5 -1 -10 4 -10 6 0 11 5 11 10 0 6 -2 10 -4 10 -3 0
-8 -4 -11 -10z"/>
<path d="M2008 723 c7 -3 16 -2 19 1 4 3 -2 6 -13 5 -11 0 -14 -3 -6 -6z"/>
<path d="M2018 663 c7 -3 16 -2 19 1 4 3 -2 6 -13 5 -11 0 -14 -3 -6 -6z"/>
<path d="M1958 653 c7 -3 16 -2 19 1 4 3 -2 6 -13 5 -11 0 -14 -3 -6 -6z"/>
<path d="M1686 509 c6 -44 3 -56 -44 -153 -3 -5 1 -5 8 -1 36 22 64 149 40
185 -7 10 -8 1 -4 -31z"/>
<path d="M1579 454 c-31 -33 -71 -54 -104 -54 -14 0 -25 -4 -25 -10 0 -19 47
-10 86 16 43 29 78 63 72 70 -3 2 -15 -8 -29 -22z"/>
<path d="M200 300 c0 -13 6 -20 18 -19 10 0 12 3 5 6 -7 2 -13 9 -13 15 0 6 7
7 16 4 8 -3 12 -2 9 4 -11 18 -35 11 -35 -10z"/>
<path d="M263 300 c2 -30 22 -34 23 -5 l1 20 -5 -20 c-5 -18 -6 -18 -13 5 l-8
25 2 -25z"/>
<path d="M302 300 c0 -14 2 -19 5 -12 2 6 2 18 0 25 -3 6 -5 1 -5 -13z"/>
<path d="M333 300 c1 -11 5 -20 9 -20 3 0 6 9 5 20 -1 11 -5 20 -9 20 -3 0 -6
-9 -5 -20z"/>
<path d="M478 63 c45 -2 119 -2 165 0 45 1 8 3 -83 3 -91 0 -128 -2 -82 -3z"/>
<path d="M823 63 c15 -2 37 -2 50 0 12 2 0 4 -28 4 -27 0 -38 -2 -22 -4z"/>
<path d="M1163 63 c93 -2 241 -2 330 0 89 1 14 3 -168 3 -181 0 -254 -2 -162
-3z"/>
</g>
</svg>
